Coordinates
version=1
nRows=17
nColumns=33
inDegrees=yes

Units are S.I. units (second, meters, Newtons, ...)
Angles are in degrees.

endheader
time	ground_thorax_rot_x	ground_thorax_rot_y	ground_thorax_rot_z	ground_thorax_tx	ground_thorax_ty	ground_thorax_tz	clav_prot_r	clav_elev_r	scapula_abduction_r	scapula_elevation_r	scapula_upward_rot_r	scapula_winging_r	shoulder_elv_r	plane_of_elev_r	axial_rot_r	elbow_flexion_r	pro_sup_r	wrist_flex_r	wrist_dev_r	clav_prot_l	clav_elev_l	scapula_abduction_l	scapula_elevation_l	scapula_upward_rot_l	scapula_winging_l	shoulder_elv_l	plane_of_elev_l	axial_rot_l	elbow_flexion_l	pro_sup_l	wrist_flex_l	wrist_dev_l	
2.1800	38.807694	7.083007	11.501821	-181.320527	820.103713	4.827354	16.774153	38.825142	42.629446	45.000000	-43.598571	2073.239824	-1907.805011	146.768698	-123.910854	744.666789	176.769537	11.474272	5.671850	9.908893	-45.000000	-41.443894	45.000000	-31.015784	-1703.542820	-1726.443425	23.376484	-21.080640	1448.026911	-337.589374	8.620632	-22.272391	
2.1900	38.866250	6.829286	11.162238	-177.220062	820.042797	4.884253	16.839084	39.026978	42.910008	45.000000	-42.858458	2073.310103	-1907.887122	146.696473	-124.421503	744.562853	178.796058	11.237500	5.636877	9.833027	-45.000000	-41.854205	45.000000	-29.676705	-1703.716740	-1726.574326	23.359944	-21.065688	1448.113217	-338.172434	8.895695	-22.130485	
2.2000	38.935173	6.545694	10.778896	-172.873109	819.790738	4.925390	16.902843	39.270594	43.185700	45.000000	-41.937257	2073.391050	-1908.024122	146.659445	-124.838898	744.436446	180.947613	10.986570	5.582664	9.745200	-45.000000	-42.280437	45.000000	-28.276298	-1703.914522	-1726.741593	23.352033	-20.963748	1448.172993	-338.693673	9.179890	-21.976391	
2.2100	39.014905	6.239730	10.358071	-168.278758	819.322035	4.949674	16.969897	39.541360	43.462116	45.000000	-40.885027	2073.488637	-1908.208893	146.652695	-125.191579	744.286032	183.220127	10.723470	5.515580	9.645734	-45.000000	-42.717922	45.000000	-26.824790	-1704.134101	-1726.942732	23.354960	-20.794742	1448.204660	-339.132206	9.474577	-21.812654	
2.2200	39.109531	5.921990	9.908167	-163.436525	818.612523	4.959817	17.022947	39.829047	43.739453	44.999999	-39.739197	2073.598236	-1908.436433	146.661477	-125.504832	744.109264	185.577918	10.451010	5.429056	9.543685	-45.000000	-43.162965	45.000000	-25.353905	-1704.376668	-1727.177680	23.366578	-20.572596	1448.217420	-339.471562	9.768612	-21.640732	
2.2300	39.220618	5.604666	9.436965	-158.347095	817.642702	4.960623	17.061776	40.118305	44.016716	44.999998	-38.556848	2073.724936	-1908.692254	146.674729	-125.812066	743.907356	187.980330	10.172265	5.324898	9.440437	-45.000000	-43.606531	45.000000	-23.888459	-1704.646100	-1727.442525	23.392565	-20.304327	1448.205464	-339.697252	10.063873	-21.464061	
2.2400	39.352486	5.292641	8.948757	-153.012772	816.400213	4.957875	17.079296	40.411366	44.284811	44.999997	-37.336942	2073.872196	-1908.973343	146.688660	-126.112529	743.679019	190.365595	9.890600	5.194102	9.329865	-45.000000	-44.023929	45.000000	-22.460220	-1704.960939	-1727.733028	23.432094	-19.970550	1448.166588	-339.802083	10.356936	-21.286306	
2.2500	39.503149	4.997318	8.455109	-147.440310	814.883367	4.955840	17.078100	40.704782	44.526799	44.999995	-36.093616	2074.057123	-1909.270734	146.705555	-126.400031	743.424969	192.684004	9.610163	5.037639	9.202004	-45.000000	-44.382545	45.000000	-21.098341	-1705.338178	-1728.042045	23.489224	-19.554169	1448.090373	-339.783071	10.652934	-21.112264	
2.2600	39.672371	4.727059	7.964697	-141.642781	813.102230	4.957066	17.045723	40.994288	44.724203	44.999991	-34.829432	2074.284136	-1909.576779	146.718361	-126.666077	743.146943	194.887364	9.336031	4.851577	9.047206	-45.000000	-44.658142	45.000000	-19.845191	-1705.794555	-1728.365618	23.566675	-19.035530	1447.977054	-339.633938	10.949763	-20.946098	
2.2700	39.853122	4.495774	7.492653	-135.641988	811.078686	4.961820	16.983054	41.273757	44.864908	44.999984	-33.579488	2074.560906	-1909.883098	146.721186	-126.899595	742.852238	196.941463	9.072169	4.637892	8.872145	-45.000000	-44.845131	45.000000	-18.735899	-1706.331997	-1728.695034	23.669297	-18.402792	1447.824960	-339.353691	11.241110	-20.790258	
2.2800	40.044099	4.295655	7.030861	-129.467690	808.843904	4.969184	16.894470	41.537503	44.950404	44.999971	-32.341197	2074.882393	-1910.189753	146.714001	-127.094037	742.541327	198.836720	8.822802	4.401982	8.669891	-45.000000	-44.949218	45.000000	-17.768807	-1706.947781	-1729.030157	23.802216	-17.643949	1447.634445	-338.939102	11.532375	-20.648857	
2.2900	40.238135	4.135701	6.592247	-123.157423	806.436119	4.977056	16.785294	41.790529	44.989091	44.999948	-31.149176	2075.242881	-1910.500385	146.696397	-127.210872	742.217358	200.564701	8.589540	4.144394	8.469717	-45.000000	-44.991752	45.000000	-16.942601	-1707.622577	-1729.370112	23.962480	-16.755014	1447.409059	-338.406260	11.805449	-20.519872	
2.3000	40.435974	3.990357	6.154068	-116.752766	803.898267	4.982689	16.676179	42.023820	45.000000	44.999907	-29.999119	2075.638229	-1910.813752	146.678137	-127.286586	741.877093	202.156912	8.373663	3.875522	8.253824	-45.000000	-45.000000	45.000000	-16.204490	-1708.336442	-1729.722785	24.145397	-15.763731	1447.151749	-337.756469	12.071742	-20.406506	
2.3100	40.632728	3.854341	5.718680	-110.297720	801.277249	4.982321	16.572251	42.249479	45.000000	44.999834	-28.910925	2076.059439	-1911.133025	146.660964	-127.284473	741.522931	203.627231	8.173190	3.595494	8.049192	-45.000000	-45.000000	45.000000	-15.530528	-1709.069604	-1730.083645	24.342239	-14.684363	1446.863344	-337.007702	12.310715	-20.304110	
2.3200	40.830625	3.700328	5.262765	-103.834815	798.622913	4.971006	16.472279	42.465337	45.000000	44.999702	-27.853452	2076.498454	-1911.460157	146.653299	-127.208774	741.147952	205.013772	7.986663	3.310961	7.840077	-45.000000	-45.000000	45.000000	-14.876059	-1709.815473	-1730.454064	24.553339	-13.524555	1446.538128	-336.161957	12.533530	-20.213767	
2.3300	41.022268	3.538467	4.805598	-97.407434	795.988192	4.943262	16.360533	42.684517	45.000000	44.999467	-26.839620	2076.940427	-1911.800062	146.649957	-127.007297	740.759378	206.331020	7.808616	3.017115	7.657295	-45.000000	-45.000000	45.000000	-14.250161	-1710.567300	-1730.822735	24.777385	-12.259610	1446.172602	-335.236481	12.716424	-20.130042	
2.3400	41.208864	3.344618	4.324295	-91.059217	793.428178	4.893810	16.237539	42.895298	45.000000	44.999044	-25.838920	2077.389235	-1912.148827	146.664818	-126.726855	740.351002	207.638043	7.635291	2.725413	7.465280	-45.000000	-45.000000	45.000000	-13.618622	-1711.324666	-1731.188549	25.020908	-10.870246	1445.755349	-334.220734	12.882451	-20.056919	
